<?xml version="1.0" encoding="utf-8"?>
<!-- Generator: Adobe Illustrator 23.0.1, SVG Export Plug-In . SVG Version: 6.00 Build 0)  -->
<svg version="1.1" id="Layer_1" xmlns="http://www.w3.org/2000/svg" xmlns:xlink="http://www.w3.org/1999/xlink" x="0px" y="0px"
	 viewBox="0 0 512 512" style="enable-background:new 0 0 512 512;" xml:space="preserve">
<style type="text/css">
	.st0{fill:#0B1742;}
</style>
<path class="st0" d="M485.3,259.9H268.7c-4.3,0-7.7,3.5-7.7,7.7v69.6h-15.3V151.6c0-1-0.2-2.1-0.6-3l0,0L222.5,96V58.9
	c0-4.3-3.5-7.7-7.7-7.7H75.6c-4.3,0-7.7,3.5-7.7,7.7V96l-22.6,52.6l0,0c-0.4,1-0.6,2-0.6,3v265.5c-10.6,8.3-12.5,23.7-4.1,34.3
	c4.6,5.9,11.7,9.4,19.3,9.3h379.1c2.9,0,5.6-1.6,7-4.3l13.3-26.6H493v-15.5h-69.9c17.6-13.1,28.8-33,30.8-54.8
	c22.5-3.6,39-23,39-45.7v-46.4C493,263.3,489.6,259.9,485.3,259.9z M199.3,337.2V159.4h30.9v177.8L199.3,337.2L199.3,337.2z
	 M149,345.5c-2,2.3-3.5,5-4.5,7.9l-37.6,10.7c-9.6,2.8-16.5,11.1-17.5,21.1L60.2,406V159.4h123.7v177.8h-16.4
	C160.4,337.2,153.6,340.2,149,345.5z M80.7,105.3H203l-16.6,38.6H64.2L80.7,105.3z M226.2,143.9h-22.9l11.5-26.8L226.2,143.9z
	 M83.4,66.6H207v23.2H83.4V66.6z M51.3,439.2c-1.3-3.8,0.1-7.9,3.3-10.2l37-26.4l8.6,42.8H59.8C55.9,445.4,52.5,442.9,51.3,439.2z
	 M104.7,389.4c-0.9-4.6,1.9-9.1,6.4-10.4l32.7-9.3l10.2,75.7h-38.1L104.7,389.4z M158.5,362.8c-0.7-4.9,2.8-9.5,7.8-10.1
	c0.4-0.1,0.8-0.1,1.2-0.1H261c0.1,24.4,11.6,47.3,31.2,61.8h-62v15.5h33.9l7.7,15.5H169.7L158.5,362.8z M441.9,429.9l-7.7,15.5h-145
	l-7.7-15.5H441.9z M438.9,352.5c0,34.2-27.8,61.9-62,62h-38.5c-34.2,0-61.9-27.8-62-62v-77.2h162.5V352.5z M477.6,314
	c-0.1,14.1-9.6,26.3-23.2,29.8v-68.5h23.2V314z"/>
<path class="st0" d="M346,399h7.7v-15.5H346c-21.3,0-38.6-17.3-38.6-38.6v-7.7h-15.5v7.7C292,374.8,316.2,399,346,399z"/>
<rect x="291.9" y="306.2" class="st0" width="15.5" height="15.5"/>
<path class="st0" d="M307.5,244.4c0-12.8,10.4-23.2,23.2-23.2h112.1c14.9,0,27.1-12.1,27.1-27.1s-12.1-27.1-27.1-27.1H350
	c-6.4,0-11.6-5.2-11.6-11.6s5.2-11.6,11.6-11.6h34.8c21.3,0,38.6-17.3,38.6-38.6H408c0,12.8-10.4,23.2-23.2,23.2H350
	c-14.9,0-27.1,12.1-27.1,27.1s12.1,27.1,27.1,27.1h92.8c6.4,0,11.6,5.2,11.6,11.6s-5.2,11.6-11.6,11.6H330.7
	c-21.3,0-38.6,17.3-38.6,38.6H307.5z"/>
<path class="st0" d="M122,198c-17.1,0-30.9,13.8-30.9,30.9s13.8,30.9,30.9,30.9s30.9-13.8,30.9-30.9S139.1,198,122,198z M122,244.4
	c-8.5,0-15.5-6.9-15.5-15.5c0-8.5,6.9-15.5,15.5-15.5s15.5,6.9,15.5,15.5S130.5,244.4,122,244.4z"/>
<rect x="91.1" y="275.3" class="st0" width="61.8" height="15.5"/>
<rect x="91.1" y="306.2" class="st0" width="61.8" height="15.5"/>
</svg>
