<?xml version="1.0" encoding="utf-8"?>
<!-- Generator: Adobe Illustrator 18.1.1, SVG Export Plug-In . SVG Version: 6.00 Build 0)  -->
<svg version="1.1" id="Layer_1" xmlns="http://www.w3.org/2000/svg" xmlns:xlink="http://www.w3.org/1999/xlink" x="0px" y="0px"
	 viewBox="0 0 600 600" enable-background="new 0 0 600 600" xml:space="preserve">
<g>
	<g>
		<g>
			<path fill="#164A7C" d="M553.9,363.9c-18.5,0-28,7.5-36.5,14.1c-7.7,6-13.7,10.8-26.9,10.8s-19.2-4.7-26.9-10.8
				c-8.4-6.6-17.9-14.1-36.5-14.1c-10.6,0-19.5,2.5-27.9,7.8c-3.6,2.3-4.7,7.1-2.4,10.7c2.3,3.6,7.1,4.7,10.7,2.4
				c4.2-2.7,9.8-5.4,19.6-5.4c13.2,0,19.2,4.7,26.9,10.8c8.4,6.6,17.9,14.1,36.5,14.1c18.5,0,28-7.5,36.5-14.1
				c7.7-6,13.7-10.8,26.9-10.8c4.3,0,7.8-3.5,7.8-7.8C561.6,367.4,558.1,363.9,553.9,363.9z"/>
		</g>
	</g>
	<g>
		<g>
			<path fill="#164A7C" d="M95,385.6c-4.2-2-7.7-4.7-11.4-7.6c-8.4-6.6-17.9-14.1-36.5-14.1c-4.3,0-7.8,3.5-7.8,7.8
				c0,4.3,3.5,7.8,7.8,7.8c13.2,0,19.2,4.7,26.9,10.8c4.2,3.3,8.6,6.7,14.3,9.4c1.1,0.5,2.2,0.7,3.3,0.7c2.9,0,5.7-1.6,7-4.5
				C100.5,392.1,98.9,387.4,95,385.6z"/>
		</g>
	</g>
	<g>
		<g>
			<path fill="#164A7C" d="M435.8,80.7c-54.3,0-98.5,44.2-98.5,98.5v75.2H168.2v-75.2c0-28.6,23.3-52,52-52c28.6,0,52,23.3,52,52
				v2.3c0,12.8,10.4,23.3,23.3,23.3s23.3-10.4,23.3-23.3v-2.3c0-54.3-44.2-98.5-98.5-98.5c-54.3,0-98.5,44.2-98.5,98.5v245.5
				c0,4.3,3.5,7.8,7.8,7.8c4.3,0,7.8-3.5,7.8-7.8V179.2c0-45.8,37.2-83,83-83c45.8,0,83,37.2,83,83v2.3c0,4.3-3.5,7.8-7.8,7.8
				s-7.8-3.5-7.8-7.8v-2.3c0-37.2-30.3-67.5-67.5-67.5c-37.2,0-67.5,30.3-67.5,67.5v226.4c0,4.3,3.5,7.8,7.8,7.8s7.8-3.5,7.8-7.8
				V394h169.1v30.7c0,4.3,3.5,7.8,7.8,7.8c4.3,0,7.8-3.5,7.8-7.8V179.2c0-45.8,37.2-83,83-83c45.8,0,83,37.2,83,83v2.3
				c0,4.3-3.5,7.8-7.8,7.8s-7.8-3.5-7.8-7.8v-2.3c0-37.2-30.3-67.5-67.5-67.5c-37.2,0-67.5,30.3-67.5,67.5v28.3
				c0,4.3,3.5,7.8,7.8,7.8c4.3,0,7.8-3.5,7.8-7.8v-28.3c0-28.6,23.3-52,52-52c28.6,0,52,23.3,52,52v2.3c0,12.8,10.4,23.3,23.3,23.3
				s23.3-10.4,23.3-23.3v-2.3C534.3,124.9,490.1,80.7,435.8,80.7z M168.2,270h169.1V287H168.2V270z M337.3,346H229.7
				c-4.3,0-7.8,3.5-7.8,7.8c0,4.3,3.5,7.8,7.8,7.8h107.5v17.1H168.2v-17.1h35.7c4.3,0,7.8-3.5,7.8-7.8c0-4.3-3.5-7.8-7.8-7.8h-35.7
				v-43.4h169.1V346z"/>
		</g>
	</g>
	<g>
		<g>
			<path fill="#164A7C" d="M376.1,225.6c-4.3,0-7.8,3.5-7.8,7.8v193.8c0,4.3,3.5,7.8,7.8,7.8c4.3,0,7.8-3.5,7.8-7.8V233.4
				C383.8,229.1,380.3,225.6,376.1,225.6z"/>
		</g>
	</g>
	<g>
		<g>
			<path fill="#164A7C" d="M553.9,421.9c-18.5,0-28,7.5-36.5,14.1c-7.7,6-13.7,10.8-26.9,10.8s-19.2-4.7-26.9-10.8
				c-8.4-6.6-17.9-14.1-36.5-14.1c-18.5,0-28,7.5-36.5,14.1c-7.7,6-13.7,10.8-26.9,10.8S344.6,442,337,436
				c-8.4-6.6-17.9-14.1-36.5-14.1c-18.5,0-28,7.5-36.5,14.1c-7.7,6-13.7,10.8-26.9,10.8c-13.2,0-19.2-4.7-26.9-10.8
				c-8.4-6.6-17.9-14.1-36.5-14.1c-18.5,0-28,7.5-36.5,14.1c-7.7,6-13.7,10.8-26.9,10.8S91.3,442,83.6,436
				c-8.4-6.6-17.9-14.1-36.5-14.1c-4.3,0-7.8,3.5-7.8,7.8c0,4.3,3.5,7.8,7.8,7.8c13.2,0,19.2,4.7,26.9,10.8
				c8.4,6.6,17.9,14.1,36.5,14.1c18.5,0,28-7.5,36.5-14.1c7.7-6,13.7-10.8,26.9-10.8s19.2,4.7,26.9,10.8
				c8.4,6.6,17.9,14.1,36.5,14.1s28-7.5,36.5-14.1c7.7-6,13.7-10.8,26.9-10.8c13.2,0,19.2,4.7,26.9,10.8
				c8.4,6.6,17.9,14.1,36.5,14.1c18.5,0,28-7.5,36.5-14.1c7.7-6,13.7-10.8,26.9-10.8s19.2,4.7,26.9,10.8
				c8.4,6.6,17.9,14.1,36.5,14.1s28-7.5,36.5-14.1c7.7-6,13.7-10.8,26.9-10.8c4.3,0,7.8-3.5,7.8-7.8
				C561.6,425.4,558.1,421.9,553.9,421.9z"/>
		</g>
	</g>
	<g>
		<g>
			<path fill="#164A7C" d="M553.9,479.9c-18.5,0-28,7.5-36.5,14.1c-7.7,6-13.7,10.8-26.9,10.8s-19.2-4.7-26.9-10.8
				c-8.4-6.6-17.9-14.1-36.5-14.1c-18.5,0-28,7.5-36.5,14.1c-7.7,6-13.7,10.8-26.9,10.8S344.6,500,337,494
				c-8.4-6.6-17.9-14.1-36.5-14.1c-18.5,0-28,7.5-36.5,14.1c-7.7,6-13.7,10.8-26.9,10.8c-13.2,0-19.2-4.7-26.9-10.8
				c-8.4-6.6-17.9-14.1-36.5-14.1c-4.3,0-7.8,3.5-7.8,7.8s3.5,7.8,7.8,7.8c13.2,0,19.2,4.7,26.9,10.8c8.4,6.6,17.9,14.1,36.5,14.1
				s28-7.5,36.5-14.1c7.7-6,13.7-10.8,26.9-10.8c13.2,0,19.2,4.7,26.9,10.8c8.4,6.6,17.9,14.1,36.5,14.1c18.5,0,28-7.5,36.5-14.1
				c7.7-6,13.7-10.8,26.9-10.8s19.2,4.7,26.9,10.8c8.4,6.6,17.9,14.1,36.5,14.1s28-7.5,36.5-14.1c7.7-6,13.7-10.8,26.9-10.8
				c4.3,0,7.8-3.5,7.8-7.8S558.1,479.9,553.9,479.9z"/>
		</g>
	</g>
	<g>
		<g>
			<path fill="#164A7C" d="M148.3,495.3c-2.6-3.4-7.5-4-10.9-1.3c-7.7,6-13.7,10.8-26.9,10.8c-13.2,0-19.2-4.7-26.9-10.8
				c-8.4-6.6-17.9-14.1-36.5-14.1c-4.3,0-7.8,3.5-7.8,7.8c0,4.3,3.5,7.8,7.8,7.8c13.2,0,19.2,4.7,26.9,10.8
				c8.4,6.6,17.9,14.1,36.5,14.1c18.5,0,28-7.5,36.5-14.1C150.3,503.6,150.9,498.7,148.3,495.3z"/>
		</g>
	</g>
</g>
</svg>
